<?xml version="1.0" encoding="UTF-8"?>
<svg id="Layer_2" xmlns="http://www.w3.org/2000/svg" xmlns:xlink="http://www.w3.org/1999/xlink" viewBox="0 0 86.89 23.11">
  <defs>
    <style>
      .cls-1 {
        fill: none;
      }

      .cls-2 {
        fill: #fff;
      }

      .cls-3 {
        fill: #e91d2b;
      }

      .cls-4 {
        clip-path: url(#clippath);
      }
    </style>
    <clipPath id="clippath">
      <rect class="cls-1" width="86.89" height="23.11"/>
    </clipPath>
  </defs>
  <g id="Layer_1-2" data-name="Layer_1">
    <g class="cls-4">
      <path class="cls-2" d="M50.13,0c.46,0,.56.06.56,1.7v1.51c0,1.57-.13,1.75-.56,1.75h-5.24v17.66c0,.4-.49.49-2.25.49h-.92c-1.79,0-2.09-.1-2.09-.49V4.96h-5.24c-.43,0-.55-.12-.55-1.75v-1.51C33.83,0,33.92,0,34.38,0h15.75ZM59.52.49C59.52.16,59.03,0,57.33,0h-.99C54.56,0,54.26.16,54.26.49v22.12c0,.4.31.49,2.09.49h.99c1.69,0,2.19-.1,2.19-.49V.49ZM85.1,0h-1.54c-1.97,0-2.1.22-2.25.56l-3.05,7.33c-1.02,2.43-2.06,5.05-2.46,6.41-.37-1.36-1.05-3.18-2.47-6.53l-3.05-7.21C70.09.13,69.32,0,67.65,0h-1.72c-1.69,0-2.03.16-2.03.49v22.12c0,.4.34.49,2.09.49h.95c1.72,0,2.22-.1,2.22-.49v-13.13h.12s.15.62.4,1.17l3.51,8.23c.15.37.34.52,1.97.52h1.05c1.67,0,1.79-.13,1.94-.52l3.21-7.92c.31-.74.52-1.48.52-1.48h.12v13.13c0,.4.34.49,2.15.49h.93c1.69,0,2.19-.1,2.19-.49V.49C87.28.16,86.79,0,85.1,0"/>
      <path class="cls-3" d="M26.32,4.95H1.33c-.37,0-.7-.15-.94-.39C.15,4.31,0,3.98,0,3.62V1.34C0,.97.15.64.39.39.63.16.96,0,1.33,0h24.99c.37,0,.71.15.95.4.24.24.38.57.38.93v2.28c0,.36-.15.69-.38.94-.24.24-.58.4-.95.4M11.06,9.08H1.33c-.37,0-.7.15-.94.39C.15,9.72,0,10.05,0,10.41v2.28c0,.37.15.7.38.94.24.24.57.39.94.39h9.73v-4.94ZM27.27,9.48c-.24-.24-.58-.39-.95-.39h-9.73v4.94h9.73c.37,0,.7-.15.95-.39.24-.24.38-.57.38-.94v-2.28c0-.36-.15-.7-.38-.94M27.27,18.56c-.24-.24-.58-.4-.95-.4h-9.73v4.94h9.73c.37,0,.7-.15.95-.39.24-.24.38-.57.38-.94v-2.28c0-.36-.15-.69-.38-.93M11.06,18.16H1.33c-.37,0-.7.15-.94.39C.15,18.8,0,19.13,0,19.49v2.28c0,.37.15.7.38.94.24.24.57.39.94.39h9.73v-4.94Z"/>
    </g>
  </g>
</svg>