<?xml version="1.0" encoding="UTF-8"?>
<svg xmlns="http://www.w3.org/2000/svg" id="Layer_2" viewBox="0 0 118.98 23.58">
  <defs>
    <style>
      .cls-1 {
        fill: #fff;
      }
    </style>
  </defs>
  <g id="Layer_1-2" data-name="Layer_1">
    <g>
      <path class="cls-1" d="M.08,12.65l.18-.28c.31.2.63.28.95.28.54,0,.74-.14.74-.47s-.29-.39-.75-.46c-.61-.1-.99-.21-.99-.76s.33-.74,1-.74c.45,0,.76.1.97.25l-.2.3c-.18-.12-.47-.21-.77-.21-.46,0-.64.12-.64.4,0,.3.26.36.72.44.59.1,1.02.19,1.02.78,0,.53-.33.81-1.09.81-.43,0-.81-.09-1.14-.32"></path>
      <path class="cls-1" d="M2.66,11.93c0-.58.18-1.05.97-1.05s.85.57.84,1.18h-1.47c.02.37.15.61.64.61.32,0,.48-.08.63-.2l.19.25c-.21.16-.44.26-.82.26-.82,0-.98-.47-.98-1.05M3,11.75h1.14c-.02-.32-.05-.56-.52-.56s-.59.23-.62.56"></path>
      <path class="cls-1" d="M4.81,11.92c0-.62.2-1.05.98-1.05.35,0,.59.13.74.3l-.26.24c-.09-.1-.23-.2-.49-.2-.49,0-.63.27-.63.72s.14.72.63.72c.22,0,.35-.07.5-.21l.23.22c-.2.19-.4.3-.75.3-.76,0-.97-.42-.97-1.04"></path>
      <path class="cls-1" d="M6.94,10.94l.28-.02.04.24c.08-.14.32-.26.67-.27v.35c-.48,0-.63.25-.63.62v1.06h-.35v-1.99Z"></path>
      <path class="cls-1" d="M8.17,11.93c0-.58.18-1.05.97-1.05s.85.57.84,1.18h-1.47c.02.37.15.61.64.61.32,0,.48-.08.63-.2l.19.25c-.21.16-.44.26-.82.26-.82,0-.98-.47-.98-1.05M8.51,11.75h1.14c-.02-.32-.05-.56-.52-.56s-.59.23-.62.56"></path>
      <path class="cls-1" d="M10.26,10.92h.36l.06-.57.28-.05v.62h.53v.32h-.53v1.1c0,.18.02.29.29.29h.24v.31s-.25,0-.3,0c-.47,0-.57-.18-.57-.55v-1.14h-.35v-.32Z"></path>
      <path class="cls-1" d="M11.79,12.36c0-.57.32-.74,1.31-.74h.11c0-.29-.08-.42-.5-.42-.25,0-.46.09-.59.17l-.18-.28c.13-.09.45-.22.8-.22.68,0,.8.24.8.8v.72c0,.2.01.22.2.22v.31s-.07,0-.14,0c-.22,0-.29-.06-.34-.23-.12.17-.33.26-.76.26-.57,0-.71-.27-.71-.61M13.21,12.05v-.12h-.09c-.82,0-1,.1-1,.41,0,.21.1.33.44.33.46,0,.65-.19.65-.62"></path>
      <path class="cls-1" d="M14.15,10.94l.28-.02.04.24c.08-.14.32-.26.67-.27v.35c-.48,0-.63.25-.63.62v1.06h-.35v-1.99Z"></path>
    </g>
    <path class="cls-1" d="M15.5,12.93h.34v-2.01h-.34v2.01ZM15.5,10.68h.35v-.43h-.35v.43Z"></path>
    <g>
      <path class="cls-1" d="M16.27,12.36c0-.57.32-.74,1.31-.74h.11c0-.29-.08-.42-.5-.42-.25,0-.46.09-.59.17l-.18-.28c.13-.09.45-.22.8-.22.68,0,.8.24.8.8v.72c0,.2.01.22.2.22v.31s-.07,0-.14,0c-.22,0-.29-.06-.34-.23-.12.17-.33.26-.76.26-.57,0-.71-.27-.71-.61M17.69,12.05v-.12h-.09c-.82,0-1,.1-1,.41,0,.21.1.33.44.33.46,0,.65-.19.65-.62"></path>
      <path class="cls-1" d="M19.35,11.92c0-.61.19-1.04.87-1.04.41,0,.61.08.71.24v-.99h.35v2.79l-.27.03-.04-.23c-.12.18-.34.26-.77.26-.67,0-.86-.43-.86-1.05M20.93,11.92c0-.53-.17-.71-.65-.71s-.58.27-.58.71.12.73.58.73.65-.2.65-.73"></path>
      <path class="cls-1" d="M21.7,11.93c0-.58.18-1.05.97-1.05s.85.57.84,1.18h-1.47c.02.37.15.61.64.61.32,0,.48-.08.63-.2l.19.25c-.21.16-.44.26-.82.26-.82,0-.98-.47-.98-1.05M22.04,11.75h1.14c-.02-.32-.05-.56-.52-.56s-.59.23-.62.56"></path>
    </g>
    <polygon class="cls-1" points=".92 14.76 0 14.76 0 14.23 2.43 14.23 2.43 14.76 1.51 14.76 1.51 16.91 .92 16.91 .92 14.76"></polygon>
    <g>
      <path class="cls-1" d="M2.69,15.95v-1.09h.56v1.1c0,.28,0,.48.41.48s.41-.2.41-.49v-1.1h.55v1.09c0,.7-.19.99-.96.99s-.97-.28-.97-.99"></path>
      <path class="cls-1" d="M5.04,14.89l.44-.03.06.22c.09-.13.33-.24.65-.25v.54c-.48,0-.58.19-.58.51v1.01h-.56v-2.01Z"></path>
    </g>
    <path class="cls-1" d="M6.51,16.91h.56v-2.05h-.56v2.05ZM6.51,14.67h.57v-.52h-.57v.52Z"></path>
    <g>
      <path class="cls-1" d="M7.35,16.68l.29-.41c.21.14.49.21.72.21.28,0,.36-.03.36-.17,0-.12-.08-.15-.36-.18-.5-.07-.89-.14-.89-.68,0-.42.24-.64.89-.64.33,0,.64.06.85.19l-.27.44c-.14-.08-.36-.13-.57-.13-.29,0-.34.05-.34.15,0,.11.07.14.33.18.51.07.9.13.9.64,0,.47-.25.66-.95.66-.35,0-.7-.07-.97-.26"></path>
      <path class="cls-1" d="M9.59,14.89l.44-.03.05.18c.09-.12.31-.22.71-.22.44,0,.53.1.59.23.1-.13.33-.23.75-.23.61,0,.71.34.71.85v1.24h-.57v-1.13c0-.25,0-.43-.34-.43-.39,0-.43.18-.43.46v1.1h-.56v-1.13c0-.25,0-.43-.35-.43-.39,0-.43.18-.43.46v1.1h-.56v-2.01Z"></path>
      <path class="cls-1" d="M13.17,15.88c0-.69.3-1.07,1.06-1.07s1.06.38,1.06,1.07-.29,1.07-1.06,1.07-1.06-.38-1.06-1.07M14.72,15.9c0-.35-.11-.57-.49-.57s-.49.22-.49.57.1.57.49.57.49-.22.49-.57"></path>
      <path class="cls-1" d="M43.57,19.7c.08-.08.2-.09.29-.04-.19-.17-.33-.42-.36-.71-.04-.33.05-.63.23-.86.23.17.4.44.44.76.02-.04.04-.07.07-.1.16-.21.38-.35.6-.41-.05-.08-.05-.18,0-.27.04-.08.12-.12.2-.13-.01-.03-.02-.06-.02-.08-.07.03-.16.03-.24-.01-.12-.07-.17-.23-.1-.36.07-.12.23-.17.35-.1.08.04.12.12.13.2.03-.01.05-.02.08-.02-.03-.08-.03-.16.01-.24.05-.09.15-.14.25-.13-.22-.11-.42-.31-.53-.57-.13-.3-.12-.62-.01-.89.27.1.5.31.63.6.01-.04.02-.08.04-.12.1-.26.28-.46.49-.58-.08-.06-.12-.17-.1-.28.02-.09.09-.15.16-.18-.02-.02-.03-.05-.04-.08-.06.05-.15.08-.23.05-.14-.04-.22-.18-.18-.32.04-.14.18-.23.32-.19.09.02.15.08.18.16.02-.02.05-.03.07-.04-.05-.06-.07-.15-.05-.23.03-.11.13-.19.24-.19-.25-.05-.49-.2-.67-.43-.2-.26-.27-.57-.22-.86.28.03.56.18.75.43,0-.04,0-.08.01-.12.03-.27.16-.5.33-.67-.08-.05-.14-.14-.14-.24,0-.09.05-.17.11-.21-.03-.02-.04-.04-.06-.07-.05.07-.13.11-.21.11-.14,0-.26-.12-.25-.27,0-.14.12-.26.26-.26.09,0,.16.05.21.11.02-.02.04-.04.06-.06-.06-.05-.1-.13-.1-.21,0-.11.07-.21.17-.24-.25,0-.51-.08-.73-.27-.25-.21-.39-.5-.41-.79.28-.04.59.05.83.25,0-.04-.01-.08-.02-.12-.03-.26.04-.51.16-.71-.09-.03-.16-.1-.18-.2-.02-.09.01-.17.07-.23-.03-.01-.05-.03-.07-.05-.03.08-.1.13-.19.15-.14.03-.28-.07-.3-.21-.03-.14.07-.28.21-.31.08-.02.17.01.23.07.01-.03.03-.05.05-.07-.07-.03-.13-.1-.14-.19-.02-.1.02-.19.09-.25-.24.05-.51.03-.75-.1-.29-.15-.49-.4-.57-.68.27-.1.58-.08.87.06-.02-.04-.03-.08-.04-.11-.09-.27-.07-.54.02-.78-.11.01-.21-.05-.26-.15-.04-.08-.03-.17.01-.24-.03,0-.06-.02-.08-.03-.02.08-.07.15-.15.19-.13.06-.28,0-.35-.13-.06-.13,0-.29.12-.35.08-.04.17-.03.24,0,0-.03.01-.06.03-.08-.08-.02-.15-.07-.19-.15-.05-.1-.02-.22.05-.29-.22.12-.48.17-.76.12-.32-.06-.58-.25-.73-.49.23-.17.53-.24.85-.19-.03-.03-.05-.06-.07-.1-.15-.23-.22-.49-.2-.74-.1.04-.21.01-.28-.07-.06-.07-.08-.15-.06-.23-.03,0-.06,0-.09,0,0,.08-.02.17-.09.23-.11.1-.27.09-.37-.02-.1-.11-.09-.27.02-.37.06-.06.15-.08.23-.06,0-.03,0-.06,0-.09-.08,0-.16-.02-.22-.09-.06-.07-.08-.15-.06-.23-.17.18-.4.3-.67.34-.32.04-.63-.05-.85-.23.17-.23.43-.4.75-.44-.03-.02-.07-.05-.1-.07-.26-.2-.41-.48-.44-.77.28-.05.59.03.85.23.03.03.06.05.09.08-.04-.32.05-.62.23-.84.23.17.4.44.44.77.04.28-.03.55-.17.77.1-.05.22-.02.3.06.06.06.08.15.06.23.03,0,.05,0,.08,0,0-.08.02-.16.09-.22.11-.1.27-.09.37.02.1.11.09.27-.02.37-.06.06-.15.08-.23.06,0,.03,0,.06,0,.08.08,0,.16.02.22.09.08.09.09.22.03.31.24.07.47.22.63.46.03.03.05.07.07.1.06-.31.24-.57.48-.72.17.23.24.55.18.87-.06.31-.23.57-.46.73.12-.03.25.02.31.14.03.08.03.17,0,.24.03,0,.05.01.08.03.02-.08.07-.15.15-.18.13-.06.28,0,.34.12.06.13,0,.29-.12.35-.08.04-.16.03-.23,0,0,.03-.01.05-.03.08.08.01.15.07.19.15.05.11.02.23-.07.31.22.13.4.35.48.62.01.04.03.08.03.12.15-.29.39-.48.66-.56.1.27.08.59-.06.89-.13.26-.35.45-.59.55.11.01.2.1.22.21.02.09-.01.17-.07.23.02.01.05.03.07.04.03-.07.1-.13.18-.14.14-.03.28.07.3.21.03.14-.06.28-.21.31-.08.02-.17-.01-.22-.07-.01.03-.03.05-.05.07.07.03.13.1.15.19.02.11-.03.21-.12.27.17.17.28.41.3.68,0,.04,0,.08,0,.12.21-.24.49-.38.77-.4.03.29-.05.6-.26.85-.2.24-.46.37-.73.4.11.03.2.14.2.26,0,.09-.05.16-.11.21.02.02.04.04.05.06.05-.06.13-.1.21-.1.14,0,.26.12.25.27,0,.15-.12.26-.27.26-.09,0-.16-.04-.21-.11-.02.02-.04.04-.06.06.07.05.11.13.11.21,0,.12-.08.22-.18.25.12.21.18.47.15.74,0,.04-.01.08-.02.12.26-.19.56-.26.84-.21-.03.29-.18.57-.44.77-.24.19-.54.26-.81.23.12.05.18.18.15.31-.02.08-.08.15-.16.18.02.02.03.04.04.07.06-.05.15-.07.23-.05.14.04.22.18.18.32-.04.14-.18.22-.32.18-.08-.02-.14-.08-.17-.16-.02.02-.04.03-.07.04.05.06.08.15.05.23-.03.11-.13.19-.24.19.08.24.08.52-.02.78-.02.04-.03.08-.05.11.29-.12.61-.12.86,0-.1.27-.31.51-.61.64-.27.12-.57.13-.82.04.09.08.11.22.05.32-.04.08-.12.12-.2.13.01.02.02.05.02.08.07-.03.16-.03.23.01.12.07.17.23.1.35-.07.13-.23.17-.35.1-.08-.04-.12-.12-.13-.2-.03.01-.05.02-.08.02.04.08.04.17-.01.24-.06.1-.16.15-.27.13,0,.24-.08.49-.24.71-.03.03-.05.07-.08.09.32-.04.61.06.83.24-.17.23-.44.4-.76.44-.3.04-.59-.04-.81-.21.08.11.06.26-.04.35-.06.06-.15.08-.23.06,0,.03,0,.06,0,.08.08,0,.16.02.22.08.1.11.09.27-.02.37-.11.1-.27.09-.37-.02-.06-.07-.08-.15-.06-.23-.03,0-.06,0-.08,0,.01.08-.02.17-.08.23-.1.1-.27.09-.37-.02-.1-.11-.09-.27.02-.37.07-.06.15-.08.23-.06,0-.03,0-.06,0-.09-.08.01-.16-.02-.22-.08-.1-.11-.09-.27.02-.37.11-.1.27-.09.36.02.06.06.08.15.06.23.03,0,.06,0,.08,0,0-.08.02-.16.08-.22"></path>
      <path class="cls-1" d="M33.09,3.66c-.53.62-1,1.34-1.4,2.12l.43-1.59s0-.05-.03-.06l-.4-.18s-.05,0-.06.02l-1.09,1.95s0,.05.01.06c.02.01.04.01.06,0,0,0,.78-.92.93-1.1l-.11,1.41c-.06.14-.12.27-.18.41-.33.83-.58,1.72-.74,2.63l-.03-1.71s-.02-.04-.04-.04l-.43-.06s-.05.01-.05.03l-.5,2.18s0,.05.03.06c.02,0,.05,0,.06-.03,0,0,.49-1.1.59-1.31l.3,1.42c-.09.64-.13,1.28-.13,1.93,0,.35.01.71.04,1.05l-.44-1.64s-.03-.03-.05-.03l-.43.05s-.04.02-.04.05l.05,2.24s.02.04.04.04c.02,0,.05-.02.05-.04,0,0,.21-1.19.25-1.42l.63,1.3c.11,1.03.34,2.03.68,2.98l-.85-1.45s-.04-.03-.06-.02l-.4.17s-.04.03-.03.06l.64,2.15s.03.04.05.03c.02,0,.04-.02.04-.05h0s-.12-1.2-.14-1.44l.95,1.07c.38.94.87,1.81,1.44,2.57l-1.23-1.07s-.04-.02-.06,0l-.33.29s-.02.04,0,.06l1.28,1.83s.04.02.06.01c.02,0,.02-.02.02-.04,0,0,0-.01,0-.02,0,0-.49-1.1-.58-1.31l1.21.69c.16.19.33.38.51.56.1.09.25.09.34,0,.09-.09.09-.25,0-.34-.18-.18-.36-.38-.53-.59l-.1-1.14c.15.18.93,1.08.93,1.08.02.02.04.02.06,0,.02-.01.02-.04.01-.06l-1.12-1.94s-.04-.03-.06-.02l-.41.16s-.04.03-.03.06l.47,1.54c-.59-.78-1.1-1.68-1.48-2.66l.23-1.2c.1.21.63,1.32.63,1.32.01.02.04.03.06.02.02,0,.04-.03.03-.06l-.56-2.17s-.03-.04-.05-.04l-.44.05s-.04.02-.04.05v1.67c-.32-.95-.54-1.95-.65-2.98l.54-1.13c.04.23.28,1.44.28,1.44,0,.02.03.04.05.04.02,0,.04-.02.04-.05v-2.25s-.02-.04-.04-.05l-.43-.07s-.05.01-.05.03l-.41,1.64c-.03-.34-.04-.69-.04-1.04,0-.67.05-1.33.14-1.98l.78-.96c-.01.23-.07,1.46-.07,1.46h0s.02.05.04.05c.02,0,.05-.01.05-.03l.53-2.18s0-.04-.03-.05l-.41-.17s-.05,0-.06.02l-.77,1.47c.19-1.08.51-2.11.95-3.06l1.03-.66c-.08.22-.51,1.37-.51,1.37,0,0,0,.01,0,.02,0,.02,0,.03.02.04.02.01.05,0,.06-.02l1.17-1.91s0-.05,0-.06l-.34-.29s-.04-.02-.06,0l-1.2,1.16c.38-.76.83-1.45,1.35-2.06l1.69-1.47s.01-.02,0-.03c0-.01-.02-.01-.03,0,0,0-.5.29-.88.51l1.11-1.44s0-.02,0-.03c0,0-.02,0-.03,0l-1.3,1.25c.18-.4.4-.92.4-.92,0-.01,0-.02,0-.03s-.02,0-.03,0l-1.3,1.86h0Z"></path>
      <path class="cls-1" d="M42.28,10.34c.3,0,.59.09.58.39-.02.32-.43.53-.81.57-.38.05-1.4-.06-1.66-.07.37-.17.94-.3,1.2-.38.23-.07.42-.18.57-.38,0,0,.01-.01.01-.01.07-.09.1-.12.11-.12M43.09,8.9h0c-.1.03.08-.19.26-.06,0,0-.17.04-.26.06M38.68,12.6c0-.17,0-.46,0-.59.02-.22.11-.41.35-.58-.06.1.01.89.06,1.18-.09,0-.19-.01-.28-.01-.04,0-.09,0-.13,0M39.95,3.65c1.19.33,2.26,1.16,3.08,2.32l-1.62,1.95-1.09-.02-.22-3.76s0-.3-.14-.5M33,9.81c.64-3.62,2.99-6.32,5.79-6.32.24,0,.47.02.7.06-.24.22-.29.86-.29.86,0,0-.27,1.93-.38,1.94-.52.07-.58.39-.58.39,0,0-.28-.48-.61-.26-.25.12-.47.34-.47.34,0,0-.44-.83-1.06.51l-1.1,2.15c.21-.04.41-.08.56-.12.58-.15,1.88-.52,2.63-.71.75-.19,1.62-.51,2-.51s.43.22.51.37c.08.14.06.35.17.57.09.19.25.26.36.29.03,0,.06,0,.08,0-.08-.03-.15-.07-.17-.14.12.07.47.02.69-.05s.73-.29,1-.36c.27-.07.56-.12.62,0,.37-.07.48.17.52.29.04.11.06.23.05.35-.07-.07-.14-.1-.25-.11-.12,0-.41.07-.55.13-.55.24-.89.59-.89.59,0,0-.04.05-.1.1-.15.16-.26.32-.39.41-.07.06-.22.12-.53.21-.31.09-.8.22-1.07.39-.27.17-.6.42-.65.6-.03.14-.11.72-.04.89h.01s-.02,0-.02,0c1.42.34,2.48,1.64,2.48,3.18,0,.04,0,.08,0,.12h1.92c-1.04,2.47-2.96,4.14-5.16,4.14s-4.12-1.67-5.16-4.14h1.92s0-.08,0-.12c0-1.52,1.03-2.8,2.42-3.16h.04c.07-.02.15-.04.23-.05-.03-.18-.12-.53-.12-.69.01-.2.01-.41.35-.71-.29.11-.93.52-1.09.91-.49.08-1.06.03-1.42-.06-.33-.09-.75-.28-.9-.42.36-.04,1.07-.33,1.44-.54.33-.18,1.34-.69,1.74-.76l-.2.02c-.27.03-.62.22-1.02.29-.38.08-.9.03-.71-.04.35-.11.81-.29,1.05-.42-1.02.37-1.52.32-1.72.28-.07-.02-.11-.04-.08-.04.36-.1.83-.26,1.03-.4-1.2.38-1.81.23-1.82.14-.02-.03.97-.24,1.14-.29-.18.03-.66.12-1.18.11-.09.14-.22.27-.4.27l-1.32-.48ZM38.78,3.05c-3.53,0-6.4,3.93-6.4,8.76s2.87,8.76,6.4,8.76,6.4-3.93,6.4-8.76-2.87-8.76-6.4-8.76"></path>
      <path class="cls-1" d="M36.07,16.06h0c0-.05-.02-.08-.07-.07-.05,0-.06.03-.06.08v.11s.13,0,.13,0v-.11ZM36.15,16.07v.1s.15,0,.15,0v.09s-.42.03-.42.03v-.21c-.02-.14.03-.17.12-.18.06,0,.11.01.14.08l.15-.1v.1s-.13.09-.13.09Z"></path>
    </g>
    <polygon class="cls-1" points="35.88 15.55 36.3 15.63 36.35 15.3 36.27 15.29 36.23 15.52 36.14 15.5 36.18 15.28 36.1 15.27 36.06 15.49 35.98 15.47 36.02 15.24 35.93 15.23 35.88 15.55"></polygon>
    <polygon class="cls-1" points="36.18 14.55 36.4 14.78 36.08 14.76 36.03 14.88 36.42 15.06 36.46 14.98 36.2 14.86 36.5 14.88 36.53 14.81 36.32 14.58 36.58 14.7 36.62 14.62 36.23 14.44 36.18 14.55"></polygon>
    <g>
      <path class="cls-1" d="M36.74,14.1h0s.04-.07,0-.1c-.04-.03-.07-.03-.1.02l-.07.09.1.09.07-.09ZM36.44,14.12l.13-.16c.08-.1.15-.1.22-.04.07.06.1.13,0,.24l-.07.08.1.08-.06.07-.33-.28Z"></path>
      <path class="cls-1" d="M37.08,13.81l-.16-.22.08-.06.15.21c.04.05.07.07.14.02.07-.05.06-.09.03-.14l-.15-.21.07-.05.16.22c.05.07.09.15-.06.26-.15.11-.21.04-.26-.02"></path>
      <path class="cls-1" d="M37.89,13.44h0s.06-.04.05-.07-.04-.04-.08-.02l-.11.04.04.09.11-.04ZM37.82,13.27h0s.05-.04.04-.07c-.01-.03-.03-.04-.08-.02l-.1.04.03.08.1-.04ZM37.57,13.19l.18-.07c.11-.04.16-.03.19.04.02.05.01.08-.02.11.05,0,.08.02.1.07.03.09-.01.13-.12.17l-.18.08-.16-.4Z"></path>
    </g>
    <polygon class="cls-1" points="38.25 12.96 38.31 13.39 38.61 13.35 38.6 13.26 38.39 13.3 38.34 12.95 38.25 12.96"></polygon>
    <polygon class="cls-1" points="38.85 13.34 38.95 13.34 38.96 12.91 38.87 12.91 38.85 13.34"></polygon>
    <path class="cls-1" d="M39.25,13.15c.03-.15.13-.2.27-.17.08.02.12.05.15.1l-.08.05s-.05-.05-.09-.06c-.09-.02-.14.02-.16.1-.02.08,0,.14.1.16.05.01.09,0,.12-.02l.05.07s-.09.05-.19.03c-.16-.04-.2-.13-.17-.27"></path>
    <path class="cls-1" d="M39.97,13.45l.14-.12-.02.18-.12-.06ZM39.77,13.51l.08.04.06-.05.17.09v.08s.08.04.08.04l.04-.47-.09-.04-.35.31Z"></path>
    <polygon class="cls-1" points="40.36 13.84 40.42 13.9 40.61 13.68 40.5 13.97 40.56 14.02 40.84 13.89 40.64 14.1 40.71 14.16 41 13.84 40.91 13.76 40.63 13.9 40.73 13.6 40.64 13.52 40.36 13.84"></polygon>
    <path class="cls-1" d="M41.53,15.4c.16-.01.23.07.24.21,0,.09-.01.14-.05.18l-.07-.06s.04-.05.03-.11c0-.09-.06-.13-.15-.12-.09,0-.14.04-.13.14,0,.08.04.1.1.1h.01v-.12s.07,0,.07,0l.02.22h-.07c-.12.01-.19-.03-.2-.19-.01-.17.06-.23.2-.24"></path>
    <polygon class="cls-1" points="41.29 16.34 41.37 16.35 41.4 16.12 41.5 16.13 41.46 16.35 41.55 16.36 41.58 16.14 41.66 16.15 41.63 16.38 41.71 16.39 41.76 16.07 41.33 16.01 41.29 16.34"></polygon>
    <path class="cls-1" d="M41.39,16.78h0s-.01.07.03.09c.05.02.07,0,.08-.05l.04-.1-.12-.04-.04.11ZM41.32,16.74l.03-.09-.13-.05.03-.09.4.15-.07.2c-.05.13-.11.14-.19.11-.06-.02-.1-.06-.1-.13l-.17.03.03-.1.16-.03Z"></path>
    <polygon class="cls-1" points="40.87 17.31 40.94 17.35 41.06 17.16 41.14 17.21 41.03 17.4 41.1 17.44 41.21 17.25 41.28 17.29 41.17 17.49 41.24 17.53 41.41 17.26 41.04 17.03 40.87 17.31"></polygon>
    <path class="cls-1" d="M40.79,17.76h0s-.04.06,0,.1c.04.04.06.03.1-.01l.08-.08-.09-.09-.08.08ZM40.74,17.69l.07-.07-.1-.1.06-.07.31.3-.14.15c-.09.1-.16.08-.22.03-.04-.04-.07-.09-.04-.16l-.17-.04.07-.07.16.04Z"></path>
    <polygon class="cls-1" points="40.1 18.03 40.15 18.1 40.34 17.97 40.39 18.05 40.21 18.17 40.26 18.24 40.44 18.11 40.49 18.18 40.3 18.32 40.35 18.39 40.61 18.2 40.37 17.84 40.1 18.03"></polygon>
    <path class="cls-1" d="M39.08,18.6h0c-.05,0-.07.02-.07.07,0,.05.03.06.08.05h.11s-.01-.14-.01-.14h-.11ZM39.09,18.52h.09s-.02-.15-.02-.15h.09s.05.42.05.42l-.21.02c-.13.02-.17-.04-.18-.12,0-.06,0-.12.07-.15l-.1-.14h.1s.09.12.09.12Z"></path>
    <polygon class="cls-1" points="38.38 18.45 38.61 18.47 38.6 18.57 38.38 18.55 38.37 18.63 38.59 18.65 38.58 18.73 38.36 18.71 38.35 18.8 38.67 18.83 38.71 18.4 38.39 18.37 38.38 18.45"></polygon>
    <path class="cls-1" d="M38.17,18.55c-.04.15-.15.19-.28.15-.07-.02-.12-.06-.14-.11l.08-.04s.04.06.09.07c.09.03.14,0,.16-.09.03-.08,0-.14-.09-.17-.05-.02-.08,0-.12,0l-.04-.08s.1-.04.19-.01c.15.05.19.14.15.28"></path>
    <polygon class="cls-1" points="37.35 18.36 37.22 18.28 37.18 18.36 37.53 18.55 37.57 18.47 37.44 18.4 37.6 18.1 37.52 18.05 37.35 18.36"></polygon>
    <polygon class="cls-1" points="36.96 17.74 37.14 17.89 37.08 17.96 36.91 17.82 36.85 17.88 37.02 18.03 36.97 18.09 36.79 17.94 36.74 18.01 36.99 18.22 37.26 17.89 37.01 17.67 36.96 17.74"></polygon>
    <g>
      <path class="cls-1" d="M41.01,15.37h-.04c-.54.03-2.59.39-3.84,2.02l-.03.04c.4.34,1.13.68,1.69.68,1.25,0,2.27-1.03,2.27-2.29,0-.12-.04-.4-.05-.46M38.79,13.54h0l.16.47h.5s-.4.31-.4.31l.15.48s.04-.01.06-.02c.63-.19,1.19-.23,1.41-.23-.41-.61-1.1-1-1.88-1M36.52,15.82c0-1.26,1.02-2.29,2.27-2.29l-.16.47h-.5s.4.31.4.31l-.15.48.41-.29.4.29c-.74.24-1.71.9-2.49,1.95-.08-.24-.18-.65-.18-.92"></path>
      <path class="cls-1" d="M37.36,16.47h0s-.07-.03-.11.02c-.04.05-.03.08,0,.1.03.03.06.03.1-.01.04-.04.04-.08,0-.11M37.37,16.74l.03-.03c.1-.11.06-.14.03-.18,0,.03-.01.06-.05.11-.07.08-.12.07-.18.01-.07-.06-.08-.12,0-.21.08-.09.15-.09.24-.01.12.11.14.18,0,.33l-.02.03-.05-.04Z"></path>
    </g>
    <path class="cls-1" d="M37.67,16.11l.15.08-.09.08-.06-.16ZM37.57,16.06l.14.4.06-.06-.02-.07.13-.12.06.03.07-.06-.37-.19-.07.06Z"></path>
    <g>
      <path class="cls-1" d="M38.15,16h0s.04-.05.02-.07c-.02-.03-.04-.03-.08,0l-.08.06.05.07.08-.06ZM38.05,15.87h0s.04-.05.02-.07c-.02-.02-.03-.02-.07,0l-.08.06.05.07.08-.06ZM37.82,15.85l.15-.11c.08-.06.13-.06.18,0,.03.04.03.07,0,.1.04-.02.07,0,.11.04.05.07.02.12-.07.18l-.14.11-.23-.32Z"></path>
      <path class="cls-1" d="M38.42,15.67h0s.05-.04.03-.08c-.02-.04-.05-.04-.09-.01l-.09.05.06.1.09-.05ZM38.45,15.74l-.08.04.07.11-.07.04-.2-.34.16-.09c.1-.06.16-.03.19.03.03.05.04.1,0,.15l.14.08-.08.05-.13-.08Z"></path>
    </g>
    <polygon class="cls-1" points="38.55 15.38 38.72 15.73 38.8 15.69 38.63 15.34 38.55 15.38"></polygon>
    <polygon class="cls-1" points="38.73 15.3 38.88 15.65 39.13 15.55 39.1 15.48 38.93 15.55 38.81 15.26 38.73 15.3"></polygon>
    <polygon class="cls-1" points="39.15 15.13 39.18 15.2 39.24 15.18 39.33 15.48 39.41 15.45 39.29 15.08 39.15 15.13"></polygon>
    <g>
      <path class="cls-1" d="M39.71,15.26h0s-.04-.05-.1-.04c-.06.01-.08.04-.07.08,0,.04.03.05.1.04.06-.01.08-.04.07-.08M39.66,15.1h0s-.03-.04-.08-.03c-.06.01-.07.03-.06.06,0,.03.03.04.08.03.05-.01.07-.03.06-.06M39.46,15.32s0-.09.04-.11c-.04,0-.06-.03-.07-.07-.01-.05,0-.1.13-.13.12-.03.16.01.17.06,0,.04,0,.07-.03.09.05,0,.07.04.09.09.02.06-.01.12-.14.15-.12.03-.17-.01-.19-.08"></path>
      <path class="cls-1" d="M40.07,15.06h0c0-.05-.04-.07-.09-.06-.06,0-.07.04-.07.08,0,.04.03.07.09.06.06,0,.08-.03.08-.08M39.9,15.27h.04c.14-.03.14-.07.14-.12-.01.03-.05.04-.11.05-.1.01-.14-.03-.15-.11-.01-.09.02-.15.14-.16.12-.02.17.03.19.15.02.16-.01.23-.2.25h-.04s-.01-.06-.01-.06Z"></path>
      <path class="cls-1" d="M40.22,15.23l.12-.12c.05-.05.07-.08.07-.11,0-.03-.02-.04-.07-.04-.04,0-.08.02-.1.03l-.04-.06s.08-.04.15-.04c.09,0,.14.02.15.1,0,.06-.02.1-.08.15l-.08.07h.17s0,.06,0,.06l-.29.02v-.07Z"></path>
    </g>
    <polygon class="cls-1" points="39.84 2.73 38.96 2.1 38.08 2.73 38.4 1.69 37.54 1.04 38.62 1.03 38.96 0 39.31 1.03 40.38 1.04 39.52 1.69 39.84 2.73"></polygon>
    <g>
      <path class="cls-1" d="M36.57,22.73c-.22-.09-.15-.25-.09-.41.07-.17.13-.32.34-.24.21.09.15.25.08.41-.07.16-.13.32-.34.24M36.6,22.64h0c-.07-.03-.05-.1,0-.27.06-.16.1-.23.18-.2.07.03.05.1-.01.26-.06.16-.1.23-.17.2M35.8,22.47l.18-.65.23.07c.18.05.17.18.12.38-.03.1-.08.33-.31.27l-.22-.06ZM36.09,21.95h0l.07.02c.09.03.06.13.03.25-.05.16-.08.22-.16.2l-.07-.02.13-.45ZM35.17,22.36c-.23-.03-.21-.2-.18-.38.02-.18.05-.34.28-.31.23.03.21.2.18.38-.02.17-.05.35-.28.31M35.18,22.27h0c-.08-.01-.08-.09-.05-.26.02-.17.04-.24.12-.23.08.01.08.09.05.26-.03.17-.04.24-.12.23M34.38,22.32v-.67s.25,0,.25,0c.18,0,.22.13.21.34,0,.1.01.34-.23.34h-.23ZM34.54,21.75h.07c.1,0,.1.11.09.24,0,.17-.02.23-.11.23h-.07s0-.47,0-.47ZM34.06,22.1h0l-.13.02.03-.3h0l.1.28ZM33.89,22.37l-.14.02.1-.69.18-.02.26.65-.15.02-.05-.15-.19.02-.02.15ZM33.18,21.82l.44-.1.02.11-.15.03.12.55-.14.03-.12-.55-.15.03-.02-.11ZM33.2,22.32c.06.17-.06.23-.16.26-.17.06-.23-.03-.26-.14l.13-.05c.02.06.04.11.11.09.04-.02.06-.05.04-.09-.04-.12-.31-.03-.37-.22-.03-.1-.01-.2.15-.25.13-.04.21,0,.25.13l-.13.04s-.04-.09-.09-.07c-.04.01-.06.05-.05.09.04.12.3.02.37.22M32.75,22.66l-.33.16-.29-.61.33-.16.04.09-.2.1.07.15.19-.09.04.09-.19.09.09.18.21-.1.04.09ZM38.75,22.85c-.2-.12-.1-.27-.01-.42.1-.15.19-.29.38-.17.2.12.11.27.01.42-.09.15-.18.29-.38.17M38.81,22.76h0c-.07-.04-.04-.11.06-.26.09-.15.14-.21.21-.16.07.04.04.11-.06.26-.09.15-.14.2-.21.16M38.42,22.62l-.12-.08.36-.57.12.08-.36.57ZM38.09,22.08l-.15.24-.12-.08.36-.57.22.14c.08.05.1.14.04.23-.04.07-.11.11-.19.07h0s.1.08.03.18c-.02.04-.09.15-.09.18l-.11-.07s.03-.08.06-.12c.04-.07.09-.12,0-.18l-.03-.02ZM38.24,21.83h0l.05.03s.05.06.01.11c-.02.04-.07.08-.11.05l-.05-.03.1-.16ZM44.82,22.52c-.21.09-.28-.07-.35-.23-.07-.16-.14-.32.08-.41.21-.09.28.07.35.23.07.16.13.32-.08.41M44.78,22.43h0c-.07.03-.11-.03-.18-.19-.07-.16-.09-.23-.01-.27.07-.03.11.03.18.19.07.16.09.23.01.26M44.1,22.47l.08.27-.13.04-.19-.65.25-.08c.09-.03.17.01.2.12.02.08.01.15-.07.2h0s.12-.02.15.09c.01.04.05.16.07.18l-.13.04s-.04-.08-.05-.12c-.02-.08-.03-.14-.14-.11h-.04ZM44.02,22.19h0l.06-.02s.08,0,.1.07c.01.04.01.1-.04.11l-.06.02-.05-.18ZM43.88,22.82l-.14.03-.14-.66.14-.03.14.66ZM43.62,22.88l-.37.06-.1-.67.36-.06.02.1-.22.04.03.17.21-.03.02.1-.21.03.03.2.23-.04.02.1ZM42.68,22.97h-.13s-.03-.67-.03-.67h.19s.2.45.2.45h0l-.02-.47h.13s.03.67.03.67h-.18s-.2-.48-.2-.48h0l.02.49ZM42.2,22.71h-.13s.08-.3.08-.3h0l.05.3ZM41.99,22.95h-.14s.23-.67.23-.67h.18s.14.7.14.7h-.15s-.03-.16-.03-.16h-.19s-.05.13-.05.13ZM41.72,22.23l.14.02-.08.51c-.02.12-.12.15-.22.14-.19-.03-.19-.11-.17-.27l.14.02c0,.05-.03.13.04.14.03,0,.06-.02.06-.05l.08-.52ZM40.98,22.76l-.36-.11.2-.64.35.11-.03.1-.22-.07-.05.16.2.06-.03.1-.2-.06-.06.19.22.07-.03.1ZM40.03,22.38l.28-.62.21.1c.17.08.15.2.06.4-.04.09-.13.32-.35.22l-.21-.09ZM40.39,21.92l.07.03c.09.04.04.14,0,.25-.07.15-.11.21-.19.17l-.06-.03.19-.43ZM44.92,21.12c-.69.43-1.51.68-2.38.68s-1.69-.25-2.38-.68l-.53.86-1.52-.95s-.28.46-.53.87c-.89-.49-1.91-.78-2.99-.78-1.2,0-2.31.34-3.26.93,0,0,.67,1.11.88,1.44.69-.43,1.51-.68,2.38-.68s1.69.25,2.38.68l.53-.86,1.5.94c.09-.14.33-.52.54-.86.89.5,1.91.77,3,.77,1.2,0,2.31-.34,3.26-.93,0,0-.72-1.16-.89-1.44"></path>
      <path class="cls-1" d="M52.06,12.08h0v1.2h.86c.35,0,.61-.05.79-.14s.27-.25.27-.49c0-.2-.07-.34-.21-.43-.14-.09-.34-.14-.6-.14h-1.12ZM52.11,14.71v1.99c0,.06-.02.12-.06.17-.04.05-.1.07-.16.07h-1.59c-.06,0-.11-.02-.15-.07-.04-.05-.06-.11-.06-.17v-5.82c0-.06.02-.12.06-.17.04-.05.09-.07.15-.07h3.6c.62,0,1.11.15,1.48.46.4.33.6.77.6,1.31,0,.61-.17,1.05-.49,1.33-.08.07-.18.14-.28.2-.11.06-.23.12-.35.16.15.09.28.19.39.3.11.11.2.21.27.32l.98,1.86c.05.09.05.18.01.25-.04.08-.11.12-.2.12h-1.82s-.08-.01-.11-.04c-.04-.03-.06-.06-.08-.1l-.92-1.91v.02s-.03-.05-.05-.08c-.02-.03-.04-.05-.07-.06-.04-.03-.19-.05-.44-.05h-.7Z"></path>
      <path class="cls-1" d="M57.02,16.94c-.05,0-.1-.02-.13-.07-.04-.05-.05-.1-.05-.17v-5.82c0-.06.02-.12.05-.17.04-.05.08-.07.13-.07h1.33c.05,0,.1.02.13.07.03.05.05.11.05.17v5.82c0,.07-.02.12-.05.17-.04.05-.08.07-.13.07h-1.33Z"></path>
      <path class="cls-1" d="M63.25,12.74h0c-.24-.23-.58-.35-1.03-.35s-.79.12-1.02.35c-.23.23-.35.58-.35,1.04s.12.81.35,1.04c.23.23.58.35,1.02.35s.79-.11,1.03-.35c.24-.23.35-.58.35-1.04s-.12-.81-.35-1.04M64.74,16.23c-.57.54-1.41.8-2.52.8s-1.95-.27-2.51-.8-.85-1.35-.85-2.45.29-1.92.85-2.46,1.41-.81,2.51-.81,1.95.27,2.52.81c.57.54.85,1.36.85,2.46s-.28,1.92-.85,2.45"></path>
      <path class="cls-1" d="M71.84,12.86h0c-.17-.21-.41-.31-.74-.31h-1.26v2.48h1.2c.34,0,.6-.1.78-.31.18-.21.27-.51.27-.92s-.08-.72-.25-.93M71.16,10.64c.85,0,1.55.29,2.09.88.53.58.8,1.34.8,2.28s-.27,1.67-.8,2.27c-.53.59-1.21.88-2.05.88h-3.15c-.06,0-.11-.02-.16-.07-.04-.05-.07-.1-.07-.17v-5.82c0-.07.02-.12.07-.17.04-.05.1-.07.16-.07h3.12Z"></path>
      <path class="cls-1" d="M74.57,16.94c-.06,0-.11-.02-.15-.07-.04-.05-.06-.1-.06-.17v-5.82c0-.06.02-.12.06-.17.04-.05.09-.07.15-.07h4.18c.06,0,.11.02.15.07.04.05.06.11.06.17v1.17c0,.07-.02.13-.06.18-.04.05-.09.07-.15.07h-2.41v.64h2.06c.06,0,.11.02.15.07.04.05.06.1.06.17v1.16c0,.07-.02.13-.06.18-.04.05-.09.07-.15.07h-2.06v.68h2.6c.06,0,.11.02.15.07.04.05.06.11.06.18v1.17c0,.07-.02.12-.06.17-.04.05-.09.07-.15.07h-4.37Z"></path>
      <path class="cls-1" d="M85.31,10.57c.06,0,.11.02.15.07.04.05.06.11.06.18v4.13c0,.65-.2,1.19-.6,1.61-.39.41-.9.61-1.53.61-.33,0-.68-.07-1.04-.19-.18-.06-.32-.12-.43-.16-.11-.04-.18-.08-.23-.11-.02-.02-.05-.04-.07-.08-.02-.04-.04-.07-.04-.1l-.21-1.83c-.01-.07,0-.12.02-.17.02-.04.06-.08.1-.1.04-.02.08-.03.13-.02.05,0,.09.04.13.09.08.1.23.22.46.37.21.13.44.2.68.2.45,0,.67-.23.67-.69v-3.55c0-.07.02-.13.06-.18.04-.05.09-.07.15-.07h1.53Z"></path>
      <path class="cls-1" d="M88.25,14.6h1.33l-.65-1.4-.69,1.4ZM90.8,16.94s-.07-.01-.11-.04c-.04-.03-.07-.06-.08-.1l-.37-.79h-2.69l-.37.79s-.05.07-.09.1c-.04.03-.08.04-.11.04h-1.48c-.1,0-.16-.04-.21-.11-.04-.08-.04-.16,0-.25l2.94-5.81s.04-.06.09-.09c.04-.03.08-.04.11-.04h1.27s.07.01.11.04c.04.03.07.06.09.1l2.77,5.81c.04.09.04.17,0,.25-.04.07-.11.11-.2.11h-1.68Z"></path>
      <path class="cls-1" d="M96.43,13.21c.13.21.27.42.41.63v-2.96c0-.06.02-.12.06-.17.04-.05.1-.07.16-.07h1.4c.06,0,.12.02.16.07.04.05.07.1.07.17v5.82c0,.07-.02.12-.07.17-.04.05-.1.07-.16.07h-1.6s-.05,0-.09-.03c-.04-.02-.07-.04-.09-.07l-2.02-3.05v2.91c0,.07-.02.12-.07.17-.04.05-.1.07-.16.07h-1.4c-.06,0-.11-.02-.15-.07-.04-.05-.07-.1-.07-.17v-5.82c0-.06.02-.12.07-.17.04-.05.09-.07.15-.07h1.59s.06.01.1.03c.04.02.07.05.08.07.21.32.41.63.61.94.2.3.4.61.6.91.14.2.27.41.41.61"></path>
      <path class="cls-1" d="M99.33,16.94c-.06,0-.11-.02-.15-.07-.04-.05-.07-.1-.07-.17v-5.82c0-.06.02-.12.07-.17.04-.05.09-.07.15-.07h4.18c.06,0,.11.02.15.07.04.05.06.11.06.17v1.17c0,.07-.02.13-.06.18-.04.05-.09.07-.15.07h-2.41v.64h2.06c.06,0,.11.02.15.07.04.05.06.1.06.17v1.16c0,.07-.02.13-.06.18-.04.05-.09.07-.15.07h-2.06v.68h2.6c.06,0,.11.02.16.07.04.05.06.11.06.18v1.17c0,.07-.02.12-.06.17-.04.05-.09.07-.16.07h-4.37Z"></path>
      <path class="cls-1" d="M104.42,16.94c-.05,0-.1-.02-.13-.07-.04-.05-.05-.1-.05-.17v-5.82c0-.06.02-.12.05-.17.04-.05.08-.07.13-.07h1.33c.05,0,.09.02.13.07.04.05.05.11.05.17v5.82c0,.07-.02.12-.05.17-.04.05-.08.07-.13.07h-1.33Z"></path>
      <path class="cls-1" d="M108.24,12.08h0v1.2h.86c.35,0,.61-.05.8-.14.18-.09.27-.25.27-.49,0-.2-.07-.34-.21-.43-.14-.09-.34-.14-.6-.14h-1.12ZM108.28,14.71v1.99c0,.06-.02.12-.07.17-.04.05-.1.07-.16.07h-1.59c-.06,0-.11-.02-.15-.07-.04-.05-.06-.11-.06-.17v-5.82c0-.06.02-.12.06-.17.04-.05.09-.07.15-.07h3.6c.62,0,1.11.15,1.48.46.4.33.6.77.6,1.31,0,.61-.17,1.05-.5,1.33-.08.07-.17.14-.28.2-.11.06-.23.12-.35.16.15.09.28.19.39.3.11.11.2.21.27.32l.98,1.86c.05.09.05.18.01.25-.04.08-.11.12-.2.12h-1.82s-.08-.01-.11-.04c-.04-.03-.06-.06-.08-.1l-.92-1.91v.02s-.03-.05-.05-.08c-.02-.03-.04-.05-.07-.06-.04-.03-.19-.05-.45-.05h-.69Z"></path>
      <path class="cls-1" d="M116.64,12.74h0c-.24-.23-.58-.35-1.03-.35s-.79.12-1.02.35-.35.58-.35,1.04.12.81.35,1.04.58.35,1.02.35.79-.11,1.03-.35c.24-.23.35-.58.35-1.04s-.12-.81-.35-1.04M118.13,16.23c-.57.54-1.41.8-2.52.8s-1.95-.27-2.51-.8-.85-1.35-.85-2.45.29-1.92.85-2.46,1.41-.81,2.51-.81,1.95.27,2.52.81.85,1.36.85,2.46-.29,1.92-.85,2.45"></path>
      <path class="cls-1" d="M50.07,7.26c0-1.14.53-1.62,1.47-1.62.57,0,.91.19,1.13.45l-.42.48c-.14-.15-.33-.29-.71-.29-.61,0-.85.34-.85.99,0,.69.17,1.03.84,1.03.55,0,.7-.2.7-.64v-.07h-.78v-.58h1.4v.51c0,.9-.32,1.36-1.35,1.36-1.12,0-1.43-.58-1.43-1.62"></path>
      <path class="cls-1" d="M56.89,7.27h0c0-.61-.22-1-.86-1s-.86.38-.86,1,.21,1,.86,1,.86-.39.86-1M54.55,7.26c0-1.18.59-1.62,1.48-1.62s1.48.44,1.48,1.62-.59,1.62-1.48,1.62-1.48-.44-1.48-1.62"></path>
    </g>
    <polygon class="cls-1" points="59.07 5.69 59.72 5.69 60.5 7.99 61.28 5.69 61.92 5.69 60.81 8.86 60.18 8.86 59.07 5.69"></polygon>
    <polygon class="cls-1" points="63.73 5.69 65.84 5.69 65.84 6.32 64.35 6.32 64.35 6.93 65.8 6.93 65.8 7.54 64.35 7.54 64.35 8.23 65.86 8.23 65.86 8.84 63.73 8.84 63.73 5.69"></polygon>
    <path class="cls-1" d="M69.15,7.19h0c.34,0,.49-.09.49-.45s-.14-.46-.5-.46h-.72v.91h.73ZM69.05,7.79h-.63v1.04h-.61v-3.14h1.35c.88,0,1.09.42,1.09,1.03,0,.43-.12.83-.59,1l.55,1.12h-.66l-.52-1.04Z"></path>
    <polygon class="cls-1" points="72.21 5.69 72.88 5.69 74.17 7.67 74.17 5.69 74.76 5.69 74.76 8.84 74.19 8.84 72.81 6.71 72.81 8.84 72.21 8.84 72.21 5.69"></polygon>
    <g>
      <path class="cls-1" d="M78.99,7.27h0c0-.61-.22-1-.86-1s-.86.38-.86,1,.22,1,.86,1,.86-.39.86-1M76.65,7.26c0-1.18.59-1.62,1.48-1.62s1.48.44,1.48,1.62-.59,1.62-1.48,1.62-1.48-.44-1.48-1.62"></path>
      <path class="cls-1" d="M84.83,8.23h0c.76,0,.92-.26.92-.97s-.13-.95-.93-.95h-.39v1.91h.41ZM83.81,5.69h1.01c1.1,0,1.56.32,1.56,1.57s-.47,1.57-1.58,1.57h-.99v-3.14Z"></path>
      <path class="cls-1" d="M90.45,7.27h0c0-.61-.22-1-.86-1s-.86.38-.86,1,.22,1,.86,1,.86-.39.86-1M88.11,7.26c0-1.18.59-1.62,1.48-1.62s1.49.44,1.49,1.62-.6,1.62-1.49,1.62-1.48-.44-1.48-1.62"></path>
    </g>
    <polygon class="cls-1" points="95.26 5.69 97.36 5.69 97.36 6.32 95.88 6.32 95.88 6.93 97.33 6.93 97.33 7.54 95.88 7.54 95.88 8.23 97.38 8.23 97.38 8.84 95.26 8.84 95.26 5.69"></polygon>
    <path class="cls-1" d="M99.09,8.47l.31-.5c.3.22.65.34,1.01.34.55,0,.65-.12.65-.38s-.23-.31-.66-.38c-.75-.12-1.14-.27-1.14-.95s.38-.95,1.17-.95c.57,0,.92.15,1.13.31l-.33.54c-.18-.13-.51-.24-.81-.24-.44,0-.54.1-.54.33,0,.25.23.3.68.37.67.11,1.12.23,1.12.94,0,.64-.31.99-1.24.99-.56,0-1.02-.15-1.34-.41"></path>
    <polygon class="cls-1" points="104.2 6.32 103.22 6.32 103.22 5.69 105.79 5.69 105.79 6.32 104.82 6.32 104.82 8.84 104.2 8.84 104.2 6.32"></polygon>
    <path class="cls-1" d="M108.85,7.74h0l-.44-1.25-.44,1.25h.88ZM108.11,5.67h.63l1.13,3.16h-.64l-.18-.52h-1.27l-.18.52h-.6l1.12-3.16Z"></path>
    <path class="cls-1" d="M112.71,8.23h0c.76,0,.92-.26.92-.97s-.13-.95-.93-.95h-.39v1.91h.4ZM111.68,5.69h1.01c1.1,0,1.56.32,1.56,1.57s-.47,1.57-1.58,1.57h-.99v-3.14Z"></path>
    <path class="cls-1" d="M118.33,7.27h0c0-.61-.22-1-.86-1s-.86.38-.86,1,.22,1,.86,1,.86-.39.86-1M115.99,7.26c0-1.18.59-1.62,1.48-1.62s1.48.44,1.48,1.62-.59,1.62-1.48,1.62-1.48-.44-1.48-1.62"></path>
  </g>
</svg>
